HIERARCHY
ROOT Hips
{
	OFFSET 0.000000 0.000000 0.000000
	CHANNELS 6 Xposition Yposition Zposition Zrotation Yrotation Xrotation 
	JOINT LeftUpLeg_virtual
	{
		OFFSET 0.000000 0.000000 0.000000
		CHANNELS 3 Zrotation Yrotation Xrotation
		JOINT LeftUpLeg
		{
			OFFSET 10.205400 -3.823500 0.155100
			CHANNELS 3 Zrotation Yrotation Xrotation
			JOINT LeftLeg
			{
				OFFSET 0.708757 -12.982077 0.567790
				CHANNELS 3 Zrotation Yrotation Xrotation
				JOINT LeftFoot
				{
					OFFSET -0.708756 -10.717838 -2.184338
					CHANNELS 3 Zrotation Yrotation Xrotation
					JOINT LeftToeBase
					{
						OFFSET 0.108149 -7.191104 7.560241
						CHANNELS 3 Zrotation Yrotation Xrotation
						End Site
						{
							OFFSET 0.000000 0.000000 0.000000
						}
					}
				}
			}
		}
	}
	JOINT RightUpLeg_virtual
	{
		OFFSET 0.000000 0.000000 0.000000
		CHANNELS 3 Zrotation Yrotation Xrotation
		JOINT RightUpLeg
		{
			OFFSET -10.205400 -3.823500 0.005500
			CHANNELS 3 Zrotation Yrotation Xrotation
			JOINT RightLeg
			{
				OFFSET -0.708756 -12.982134 0.610632
				CHANNELS 3 Zrotation Yrotation Xrotation
				JOINT RightFoot
				{
					OFFSET 0.708754 -10.717769 -1.945823
					CHANNELS 3 Zrotation Yrotation Xrotation
					JOINT RightToeBase
					{
						OFFSET -0.108140 -7.191069 7.372968
						CHANNELS 3 Zrotation Yrotation Xrotation
						End Site
						{
							OFFSET 0.000000 0.000000 0.000000
						}
					}
				}
			}
		}
	}
	JOINT Spine_virtual
	{
		OFFSET 0.000000 0.000000 0.000000
		CHANNELS 3 Zrotation Yrotation Xrotation
		JOINT Spine
		{
			OFFSET 0.000000 6.876099 0.125700
			CHANNELS 3 Zrotation Yrotation Xrotation
			JOINT Spine1
			{
				OFFSET 0.000000 8.022060 0.146608
				CHANNELS 3 Zrotation Yrotation Xrotation
				JOINT Spine2
				{
					OFFSET 0.000000 9.168068 0.167552
					CHANNELS 3 Zrotation Yrotation Xrotation
					JOINT Neck_virtual
					{
						OFFSET 0.000000 0.000000 0.000000
						CHANNELS 3 Zrotation Yrotation Xrotation
						JOINT Neck
						{
							OFFSET 0.000000 10.314075 0.188496
							CHANNELS 3 Zrotation Yrotation Xrotation
							JOINT Head
							{
								OFFSET 0.000000 7.643700 -2.377400
								CHANNELS 3 Zrotation Yrotation Xrotation
								End Site
								{
									OFFSET 0.000000 0.000000 0.000000
								}
							}
						}
					}
					JOINT LeftShoulder_virtual
					{
						OFFSET 0.000000 0.000000 0.000000
						CHANNELS 3 Zrotation Yrotation Xrotation
						JOINT LeftShoulder
						{
							OFFSET 4.392200 8.824978 0.174984
							CHANNELS 3 Zrotation Yrotation Xrotation
							JOINT LeftArm
							{
								OFFSET 8.771219 -2.981674 -0.026999
								CHANNELS 3 Zrotation Yrotation Xrotation
								JOINT LeftForeArm
								{
									OFFSET 8.512804 0.000000 -0.000000
									CHANNELS 3 Zrotation Yrotation Xrotation
									JOINT LeftHand
									{
										OFFSET 18.484802 0.000000 -0.000000
										CHANNELS 3 Zrotation Yrotation Xrotation
										End Site
										{
											OFFSET 0.000000 0.000000 0.000000
										}
									}
								}
							}
						}
					}
					JOINT RightShoulder_virtual
					{
						OFFSET 0.000000 0.000000 0.000000
						CHANNELS 3 Zrotation Yrotation Xrotation
						JOINT RightShoulder
						{
							OFFSET -4.392200 8.824993 0.141379
							CHANNELS 3 Zrotation Yrotation Xrotation
							JOINT RightArm
							{
								OFFSET -8.771282 -2.981682 -0.094208
								CHANNELS 3 Zrotation Yrotation Xrotation
								JOINT RightForeArm
								{
									OFFSET -8.494598 0.000000 0.000000
									CHANNELS 3 Zrotation Yrotation Xrotation
									JOINT RightHand
									{
										OFFSET -18.483803 0.000000 0.000001
										CHANNELS 3 Zrotation Yrotation Xrotation
										End Site
										{
											OFFSET 0.000000 0.000000 0.000000
										}
									}
								}
							}
						}
					}
				}
			}
		}
	}
}
MOTION
Frames: 9
Frame Time: 0.033333
3.501449 35.891193 27.983383 179.873756 1.764982 -179.863032 -2.168458 -4.362343 6.805252 -10.421904 1.949869 -18.705013 11.303254 10.035675 20.051168 2.830417 -1.631134 10.777542 0.000000 0.000000 0.000000 1.614484 -1.679559 4.212648 7.776560 11.422581 -9.800634 -7.976986 3.549369 18.323555 3.950076 6.585415 0.896442 0.000000 0.000000 0.000000 -0.513892 0.198724 -6.318144 2.099797 -2.979915 -10.803752 -1.494370 -1.278551 8.893287 0.001688 0.035463 0.037208 -2.043507 1.053153 11.062647 -0.883557 -2.128641 7.849655 0.000000 0.000000 0.000000 -0.157268 1.599649 8.831190 -13.850994 -5.968523 3.242504 -55.413571 25.060048 13.018038 1.781900 -45.233843 7.847395 0.000000 0.000000 0.000000 -4.433169 2.933243 7.896295 26.358306 4.383203 4.363725 51.603998 -18.639813 23.943727 -9.084808 35.058251 -6.433129 0.000000 0.000000 0.000000 
3.505279 35.900997 28.003941 179.891842 1.830866 -179.761795 -1.925477 -4.460272 6.854395 -10.975602 2.661430 -18.683935 11.154115 10.863036 20.445888 3.480601 -1.094686 11.181398 0.000000 0.000000 0.000000 1.490363 -1.576701 4.246465 7.616099 11.963357 -9.769101 -8.125319 4.138829 18.344401 3.955258 6.546677 0.604014 0.000000 0.000000 0.000000 -0.463382 0.239059 -6.384032 2.086588 -2.991739 -10.843713 -1.517324 -1.285452 8.979577 -0.001803 0.031930 0.081858 -2.049655 1.221108 11.071654 -0.899279 -2.136524 7.802479 0.000000 0.000000 0.000000 -0.180493 1.696675 8.702328 -13.897963 -5.814925 3.247546 -55.479543 25.422680 12.960617 1.910926 -45.043711 7.715978 0.000000 0.000000 0.000000 -4.403079 3.037507 7.947805 26.406174 4.415883 4.325353 51.659292 -19.024037 23.849974 -8.996944 34.871463 -6.305511 0.000000 0.000000 0.000000 
3.510238 35.899418 28.036005 179.898563 1.837255 -179.757397 -1.877938 -4.446296 6.849277 -10.993570 2.652582 -18.676331 11.020968 10.776637 20.321771 3.643616 -0.927963 11.262290 0.000000 0.000000 0.000000 1.485261 -1.514449 4.233786 7.637842 11.963433 -9.828360 -8.116364 4.108664 18.415093 3.943755 6.571984 0.583269 0.000000 0.000000 0.000000 -0.469336 0.258314 -6.327891 2.077283 -3.008387 -10.866508 -1.462093 -1.302776 8.965821 0.010683 0.038848 0.091121 -2.052670 1.205588 11.126508 -0.923790 -2.105935 7.803520 0.000000 0.000000 0.000000 -0.198863 1.694915 8.817323 -13.884503 -5.754630 3.236801 -55.607565 25.923694 12.877874 1.898314 -44.736950 7.733276 0.000000 0.000000 0.000000 -4.420383 2.916440 7.973707 26.432260 4.369330 4.216041 51.804072 -19.539373 23.718078 -8.940952 34.612223 -6.288310 0.000000 0.000000 0.000000 
3.516111 35.901470 28.072926 179.838703 1.871192 -179.793856 -1.949509 -4.387042 6.833573 -10.969361 2.633249 -18.664081 11.073387 10.853389 20.223326 3.518289 -0.979554 11.333241 0.000000 0.000000 0.000000 1.438286 -1.465241 4.218284 7.636773 11.974349 -9.866605 -8.118598 4.133959 18.481864 3.914333 6.567790 0.574877 0.000000 0.000000 0.000000 -0.503130 0.278725 -6.251548 2.041361 -2.980369 -10.834318 -1.463335 -1.259147 8.941733 -0.014605 0.072889 0.101800 -1.992510 1.103525 11.084411 -0.929763 -2.029150 7.842760 0.000000 0.000000 0.000000 -0.144712 1.644902 8.852574 -13.900360 -5.738795 3.248094 -55.769628 26.345078 12.777480 1.938209 -44.584627 7.661582 0.000000 0.000000 0.000000 -4.349338 2.948537 7.982403 26.434801 4.104156 4.213382 52.035745 -20.054477 23.425056 -8.999024 34.409629 -6.311205 0.000000 0.000000 0.000000 
3.521932 35.904770 28.109499 179.867185 1.855567 -179.805686 -1.937351 -4.363719 6.806454 -10.950930 2.586119 -18.661153 11.062739 10.914011 20.138401 3.459434 -0.971369 11.419438 0.000000 0.000000 0.000000 1.464855 -1.473246 4.200231 7.663306 12.004452 -9.899219 -8.158138 4.145906 18.481737 3.888613 6.541706 0.629236 0.000000 0.000000 0.000000 -0.459254 0.357730 -6.242608 1.986184 -3.014376 -10.799739 -1.469972 -1.286923 9.014131 -0.030633 0.066951 -0.000971 -1.942997 1.066020 11.227459 -0.975813 -1.981859 7.885913 0.000000 0.000000 0.000000 -0.061065 1.628899 8.953968 -13.901199 -5.673396 3.252519 -55.893091 26.595572 12.681501 1.997299 -44.602488 7.549266 0.000000 0.000000 0.000000 -4.316832 2.946858 8.124610 26.386617 3.990337 4.146827 52.287588 -20.579722 23.209575 -8.986319 34.210553 -6.314593 0.000000 0.000000 0.000000 
3.530720 35.908199 28.141272 179.885558 1.900934 -179.803692 -1.882005 -4.336964 6.798988 -10.926852 2.598866 -18.672976 10.932659 10.859318 20.028001 3.577961 -0.824496 11.505342 0.000000 0.000000 0.000000 1.492289 -1.404939 4.174606 7.695252 12.038366 -9.940697 -8.165150 4.146406 18.512941 3.849621 6.550045 0.667828 0.000000 0.000000 0.000000 -0.501147 0.354224 -6.229942 2.051508 -3.037993 -10.792304 -1.423096 -1.316454 9.009761 0.016401 0.066616 0.045861 -2.029982 1.164245 11.220886 -1.040284 -1.924938 7.908509 0.000000 0.000000 0.000000 -0.169801 1.653653 8.945424 -13.777996 -5.684944 3.246498 -55.883112 26.582092 12.676128 1.954077 -44.766317 7.541886 0.000000 0.000000 0.000000 -4.391906 2.945362 8.146843 26.318712 3.949425 4.046352 52.531729 -20.891162 22.995582 -9.018782 34.081111 -6.324193 0.000000 0.000000 0.000000 
3.538621 35.914242 28.164421 179.891528 1.922356 -179.791753 -1.907014 -4.291905 6.781340 -10.857594 2.600081 -18.722211 10.981478 10.953912 20.031594 3.415824 -0.903130 11.564405 0.000000 0.000000 0.000000 1.506680 -1.400083 4.156612 7.698293 12.107565 -9.979200 -8.179384 4.208099 18.420798 3.806891 6.513182 0.808341 0.000000 0.000000 0.000000 -0.506141 0.378479 -6.256238 2.039582 -3.045237 -10.783462 -1.466846 -1.296079 9.100944 0.004320 0.059983 0.103541 -1.960924 1.199557 11.177243 -1.111451 -1.846414 7.867764 0.000000 0.000000 0.000000 -0.145168 1.518502 8.925934 -13.716013 -5.709275 3.268574 -55.841202 26.402873 12.785357 1.912406 -45.121039 7.512582 0.000000 0.000000 0.000000 -4.330347 2.891565 8.090131 26.211331 3.884070 4.003235 52.696074 -21.079029 22.723775 -8.959741 34.140687 -6.276025 0.000000 0.000000 0.000000 
3.545203 35.919281 28.188854 179.869863 2.023116 -179.774349 -1.931814 -4.227955 6.777721 -10.808446 2.635944 -18.785225 10.955674 10.991892 20.052462 3.364243 -0.900635 11.613794 0.000000 0.000000 0.000000 1.507049 -1.322180 4.143194 7.679147 12.149937 -10.032364 -8.180150 4.281339 18.418128 3.764006 6.513218 0.861207 0.000000 0.000000 0.000000 -0.531670 0.414397 -6.302107 2.040602 -3.090614 -10.770022 -1.479684 -1.358598 9.179608 0.001546 0.038883 0.062146 -2.016762 0.986455 11.313452 -1.135117 -1.716938 7.860660 0.000000 0.000000 0.000000 -0.139147 1.566695 9.005543 -13.638127 -5.768020 3.307465 -55.638356 25.898436 12.977947 1.768717 -45.662294 7.587823 0.000000 0.000000 0.000000 -4.344066 2.907857 8.193445 26.115548 3.948312 3.890252 52.771428 -21.133727 22.642938 -8.966058 34.269846 -6.284502 0.000000 0.000000 0.000000 
3.551306 35.922245 28.226454 179.887498 2.104302 -179.764268 -1.887034 -4.241761 6.756510 -10.785769 2.666622 -18.847084 10.852815 10.930404 20.050135 3.479836 -0.765406 11.682693 0.000000 0.000000 0.000000 1.525851 -1.324280 4.124129 7.667380 12.140117 -10.116114 -8.164626 4.293068 18.361155 3.754541 6.570553 0.941809 0.000000 0.000000 0.000000 -0.526231 0.465392 -6.324718 2.049607 -3.110178 -10.755999 -1.483206 -1.400252 9.325403 -0.018594 0.044826 0.092194 -1.993554 1.256045 11.293668 -1.296835 -1.556991 7.848218 0.000000 0.000000 0.000000 -0.179686 1.571806 8.952386 -13.549542 -5.855621 3.294355 -55.381503 25.134471 13.240361 1.634203 -46.418075 7.639374 0.000000 0.000000 0.000000 -4.380865 2.841873 8.226730 26.041334 4.051821 3.814104 52.700428 -21.008817 22.617277 -8.871394 34.449295 -6.338849 0.000000 0.000000 0.000000 
